# xmcd CD database file
#
# Track frame offsets:
#	150
#	17992
#	44525
#	61932
#	84077
#	113195
#	133650
#	158800
#	181892
#	201842
#	219867
#	243470
#
# Disc length: 3325 seconds
#
# Revision: 0
# Processed by: cddbd v1.4PL0 Copyright (c) Steve Scherf et al.
# Submitted via: CDex 1.51
#
DISCID=9e0cfb0c
DTITLE=John Reid - Island Shuffle
DYEAR=1993
DGENRE=Jazz
TTITLE0=Island Shuffle
TTITLE1=Joy Spring
TTITLE2=Coral
TTITLE3=58th Hexagram
TTITLE4=Blues for Stuart
TTITLE5=Take This
TTITLE6=My Romance
TTITLE7=Blues for Patty
TTITLE8=Sunshower
TTITLE9=Battle Hymn of the Republic
TTITLE10=Maui Sunset
TTITLE11=Festival Rag
EXTD=YEAR: 1993
EXTT0=
EXTT1=
EXTT2=
EXTT3=
EXTT4=
EXTT5=
EXTT6=
EXTT7=
EXTT8=
EXTT9=
EXTT10=
EXTT11=
PLAYORDER=
